<?xml version="1.0" encoding="UTF-8" standalone="no"?>
<!DOCTYPE svg PUBLIC "-//W3C//DTD SVG 1.1//EN" "http://www.w3.org/Graphics/SVG/1.1/DTD/svg11.dtd">
<svg version="1.1" xmlns="http://www.w3.org/2000/svg" xmlns:xlink="http://www.w3.org/1999/xlink" preserveAspectRatio="xMidYMid meet" viewBox="0.5125878866779487 -0.0024463066985163096 393.9748242266443 256.00489261339703" width="393.97" height="256"><defs><path d="M138.48 102.29C138.48 110.95 145.57 118.03 154.22 118.03C162.87 118.03 232.13 118.03 240.78 118.03C249.43 118.03 256.52 110.95 256.52 102.29C256.52 93.64 256.52 24.39 256.52 15.74C256.52 7.08 249.43 0 240.78 0C223.47 0 162.87 0 154.22 0C145.57 0 138.48 7.08 138.48 15.74C138.48 24.39 138.48 93.64 138.48 102.29ZM146.36 102.29C146.36 93.64 146.36 24.39 146.36 15.74C146.36 11.41 149.9 7.87 154.22 7.87C162.87 7.87 232.13 7.87 240.78 7.87C245.1 7.87 248.64 11.41 248.64 15.74C248.64 21.51 248.64 50.36 248.64 102.29C246.28 107.54 243.66 110.17 240.78 110.17C232.13 110.17 162.87 110.17 154.22 110.17C149.9 110.17 146.36 106.62 146.36 102.29ZM175.46 65.44C172.45 68.85 174.81 74.23 179.4 74.23C183.04 74.23 212.1 74.23 215.73 74.23C220.32 74.23 222.68 68.85 219.67 65.44C218.45 64.12 212.37 57.47 201.44 45.51C199.77 44.37 198.46 43.8 197.5 43.8C196.05 43.8 194.62 44.33 193.56 45.51C191.76 47.5 177.28 63.45 175.46 65.44ZM215.73 69.11C212.08 69.1 182.92 68.99 179.27 68.98C190.2 57.02 196.28 50.38 197.5 49.05C197.5 49.05 197.5 49.05 197.5 49.05C198.72 50.38 204.8 57.07 215.73 69.11Z" id="ezR3tVcXt"></path><path d="M138.48 102.29C138.48 110.95 145.57 118.03 154.22 118.03C162.87 118.03 232.13 118.03 240.78 118.03C249.43 118.03 256.52 110.95 256.52 102.29C256.52 93.64 256.52 24.39 256.52 15.74C256.52 7.08 249.43 0 240.78 0C223.47 0 162.87 0 154.22 0C145.57 0 138.48 7.08 138.48 15.74C138.48 24.39 138.48 93.64 138.48 102.29ZM146.36 102.29C146.36 93.64 146.36 24.39 146.36 15.74C146.36 11.41 149.9 7.87 154.22 7.87C162.87 7.87 232.13 7.87 240.78 7.87C245.1 7.87 248.64 11.41 248.64 15.74C248.64 21.51 248.64 50.36 248.64 102.29C246.28 107.54 243.66 110.17 240.78 110.17C232.13 110.17 162.87 110.17 154.22 110.17C149.9 110.17 146.36 106.62 146.36 102.29ZM175.46 65.44C172.45 68.85 174.81 74.23 179.4 74.23C183.04 74.23 212.1 74.23 215.73 74.23C220.32 74.23 222.68 68.85 219.67 65.44C218.45 64.12 212.37 57.47 201.44 45.51C199.77 44.37 198.46 43.8 197.5 43.8C196.05 43.8 194.62 44.33 193.56 45.51C191.76 47.5 177.28 63.45 175.46 65.44ZM215.73 69.11C212.08 69.1 182.92 68.99 179.27 68.98C190.2 57.02 196.28 50.38 197.5 49.05C197.5 49.05 197.5 49.05 197.5 49.05C198.72 50.38 204.8 57.07 215.73 69.11Z" id="b2STronE4B"></path><path d="M138.48 102.29C138.48 110.95 145.57 118.03 154.22 118.03C162.87 118.03 232.13 118.03 240.78 118.03C249.43 118.03 256.52 110.95 256.52 102.29C256.52 93.64 256.52 24.39 256.52 15.74C256.52 7.08 249.43 0 240.78 0C223.47 0 162.87 0 154.22 0C145.57 0 138.48 7.08 138.48 15.74C138.48 24.39 138.48 93.64 138.48 102.29ZM146.36 102.29C146.36 93.64 146.36 24.39 146.36 15.74C146.36 11.41 149.9 7.87 154.22 7.87C162.87 7.87 232.13 7.87 240.78 7.87C245.1 7.87 248.64 11.41 248.64 15.74C248.64 21.51 248.64 50.36 248.64 102.29C246.28 107.54 243.66 110.17 240.78 110.17C232.13 110.17 162.87 110.17 154.22 110.17C149.9 110.17 146.36 106.62 146.36 102.29ZM175.46 65.44C172.45 68.85 174.81 74.23 179.4 74.23C183.04 74.23 212.1 74.23 215.73 74.23C220.32 74.23 222.68 68.85 219.67 65.44C218.45 64.12 212.37 57.47 201.44 45.51C199.77 44.37 198.46 43.8 197.5 43.8C196.05 43.8 194.62 44.33 193.56 45.51C191.76 47.5 177.28 63.45 175.46 65.44ZM215.73 69.11C212.08 69.1 182.92 68.99 179.27 68.98C190.2 57.02 196.28 50.38 197.5 49.05C197.5 49.05 197.5 49.05 197.5 49.05C198.72 50.38 204.8 57.07 215.73 69.11Z" id="a9yiBfIDU"></path><path d="M138.48 102.29C138.48 110.95 145.57 118.03 154.22 118.03C162.87 118.03 232.13 118.03 240.78 118.03C249.43 118.03 256.52 110.95 256.52 102.29C256.52 93.64 256.52 24.39 256.52 15.74C256.52 7.08 249.43 0 240.78 0C223.47 0 162.87 0 154.22 0C145.57 0 138.48 7.08 138.48 15.74C138.48 24.39 138.48 93.64 138.48 102.29ZM146.36 102.29C146.36 93.64 146.36 24.39 146.36 15.74C146.36 11.41 149.9 7.87 154.22 7.87C162.87 7.87 232.13 7.87 240.78 7.87C245.1 7.87 248.64 11.41 248.64 15.74C248.64 21.51 248.64 50.36 248.64 102.29C246.28 107.54 243.66 110.17 240.78 110.17C232.13 110.17 162.87 110.17 154.22 110.17C149.9 110.17 146.36 106.62 146.36 102.29ZM175.46 65.44C172.45 68.85 174.81 74.23 179.4 74.23C183.04 74.23 212.1 74.23 215.73 74.23C220.32 74.23 222.68 68.85 219.67 65.44C218.45 64.12 212.37 57.47 201.44 45.51C199.77 44.37 198.46 43.8 197.5 43.8C196.05 43.8 194.62 44.33 193.56 45.51C191.76 47.5 177.28 63.45 175.46 65.44ZM215.73 69.11C212.08 69.1 182.92 68.99 179.27 68.98C190.2 57.02 196.28 50.38 197.5 49.05C197.5 49.05 197.5 49.05 197.5 49.05C198.72 50.38 204.8 57.07 215.73 69.11Z" id="f1IcAp0yih"></path><path d="M138.48 153.71C138.48 145.05 145.57 137.97 154.22 137.97C162.87 137.97 232.13 137.97 240.78 137.97C249.43 137.97 256.52 145.05 256.52 153.71C256.52 162.36 256.52 231.61 256.52 240.26C256.52 248.92 249.43 256 240.78 256C223.47 256 162.87 256 154.22 256C145.57 256 138.48 248.92 138.48 240.26C138.48 231.61 138.48 162.36 138.48 153.71ZM146.36 153.71C146.36 162.36 146.36 231.61 146.36 240.26C146.36 244.59 149.9 248.13 154.22 248.13C162.87 248.13 232.13 248.13 240.78 248.13C245.1 248.13 248.64 244.59 248.64 240.26C248.64 234.49 248.64 205.64 248.64 153.71C246.28 148.46 243.66 145.83 240.78 145.83C232.13 145.83 162.87 145.83 154.22 145.83C149.9 145.83 146.36 149.38 146.36 153.71ZM175.46 190.56C172.45 187.15 174.81 181.77 179.4 181.77C183.04 181.77 212.1 181.77 215.73 181.77C220.32 181.77 222.68 187.15 219.67 190.56C218.45 191.88 212.37 198.53 201.44 210.49C199.77 211.63 198.46 212.2 197.5 212.2C196.05 212.2 194.62 211.67 193.56 210.49C191.76 208.5 177.28 192.55 175.46 190.56ZM215.73 186.89C212.08 186.9 182.92 187.01 179.27 187.02C190.2 198.98 196.28 205.62 197.5 206.95C197.5 206.95 197.5 206.95 197.5 206.95C198.72 205.62 204.8 198.93 215.73 186.89Z" id="dcgyHHpR3"></path><path d="M138.48 153.71C138.48 145.05 145.57 137.97 154.22 137.97C162.87 137.97 232.13 137.97 240.78 137.97C249.43 137.97 256.52 145.05 256.52 153.71C256.52 162.36 256.52 231.61 256.52 240.26C256.52 248.92 249.43 256 240.78 256C223.47 256 162.87 256 154.22 256C145.57 256 138.48 248.92 138.48 240.26C138.48 231.61 138.48 162.36 138.48 153.71ZM146.36 153.71C146.36 162.36 146.36 231.61 146.36 240.26C146.36 244.59 149.9 248.13 154.22 248.13C162.87 248.13 232.13 248.13 240.78 248.13C245.1 248.13 248.64 244.59 248.64 240.26C248.64 234.49 248.64 205.64 248.64 153.71C246.28 148.46 243.66 145.83 240.78 145.83C232.13 145.83 162.87 145.83 154.22 145.83C149.9 145.83 146.36 149.38 146.36 153.71ZM175.46 190.56C172.45 187.15 174.81 181.77 179.4 181.77C183.04 181.77 212.1 181.77 215.73 181.77C220.32 181.77 222.68 187.15 219.67 190.56C218.45 191.88 212.37 198.53 201.44 210.49C199.77 211.63 198.46 212.2 197.5 212.2C196.05 212.2 194.62 211.67 193.56 210.49C191.76 208.5 177.28 192.55 175.46 190.56ZM215.73 186.89C212.08 186.9 182.92 187.01 179.27 187.02C190.2 198.98 196.28 205.62 197.5 206.95C197.5 206.95 197.5 206.95 197.5 206.95C198.72 205.62 204.8 198.93 215.73 186.89Z" id="d4AbF8dP6l"></path><path d="M256.52 153.71C256.52 145.05 249.43 137.97 240.78 137.97C232.13 137.97 162.87 137.97 154.22 137.97C145.57 137.97 138.48 145.05 138.48 153.71C138.48 162.36 138.48 231.61 138.48 240.26C138.48 248.92 145.57 256 154.22 256C171.53 256 232.13 256 240.78 256C249.43 256 256.52 248.92 256.52 240.26C256.52 231.61 256.52 162.36 256.52 153.71ZM248.64 153.71C248.64 162.36 248.64 231.61 248.64 240.26C248.64 244.59 245.1 248.13 240.78 248.13C232.13 248.13 162.87 248.13 154.22 248.13C149.9 248.13 146.36 244.59 146.36 240.26C146.36 234.49 146.36 205.64 146.36 153.71C148.72 148.46 151.34 145.83 154.22 145.83C162.87 145.83 232.13 145.83 240.78 145.83C245.1 145.83 248.64 149.38 248.64 153.71ZM219.54 190.56C222.55 187.15 220.19 181.77 215.6 181.77C211.96 181.77 182.9 181.77 179.27 181.77C174.68 181.77 172.32 187.15 175.33 190.56C176.55 191.88 182.63 198.53 193.56 210.49C195.23 211.63 196.54 212.2 197.5 212.2C198.95 212.2 200.38 211.67 201.44 210.49C203.24 208.5 217.72 192.55 219.54 190.56ZM179.27 186.89C182.92 186.9 212.08 187.01 215.73 187.02C204.8 198.98 198.72 205.62 197.5 206.95C197.5 206.95 197.5 206.95 197.5 206.95C196.28 205.62 190.2 198.93 179.27 186.89Z" id="c4HKrp2YH1"></path><path d="M256.52 153.71C256.52 145.05 249.43 137.97 240.78 137.97C232.13 137.97 162.87 137.97 154.22 137.97C145.57 137.97 138.48 145.05 138.48 153.71C138.48 162.36 138.48 231.61 138.48 240.26C138.48 248.92 145.57 256 154.22 256C171.53 256 232.13 256 240.78 256C249.43 256 256.52 248.92 256.52 240.26C256.52 231.61 256.52 162.36 256.52 153.71ZM248.64 153.71C248.64 162.36 248.64 231.61 248.64 240.26C248.64 244.59 245.1 248.13 240.78 248.13C232.13 248.13 162.87 248.13 154.22 248.13C149.9 248.13 146.36 244.59 146.36 240.26C146.36 234.49 146.36 205.64 146.36 153.71C148.72 148.46 151.34 145.83 154.22 145.83C162.87 145.83 232.13 145.83 240.78 145.83C245.1 145.83 248.64 149.38 248.64 153.71ZM219.54 190.56C222.55 187.15 220.19 181.77 215.6 181.77C211.96 181.77 182.9 181.77 179.27 181.77C174.68 181.77 172.32 187.15 175.33 190.56C176.55 191.88 182.63 198.53 193.56 210.49C195.23 211.63 196.54 212.2 197.5 212.2C198.95 212.2 200.38 211.67 201.44 210.49C203.24 208.5 217.72 192.55 219.54 190.56ZM179.27 186.89C182.92 186.9 212.08 187.01 215.73 187.02C204.8 198.98 198.72 205.62 197.5 206.95C197.5 206.95 197.5 206.95 197.5 206.95C196.28 205.62 190.2 198.93 179.27 186.89Z" id="a22kFTuG8W"></path><path d="M292.19 256C283.53 256 276.45 248.92 276.45 240.26C276.45 231.61 276.45 162.36 276.45 153.71C276.45 145.05 283.53 137.97 292.19 137.97C300.84 137.97 370.09 137.97 378.75 137.97C387.4 137.97 394.49 145.05 394.49 153.71C394.49 171.02 394.49 231.61 394.49 240.26C394.49 248.92 387.4 256 378.75 256C370.09 256 300.84 256 292.19 256ZM292.19 248.13C300.84 248.13 370.09 248.13 378.75 248.13C383.07 248.13 386.61 244.59 386.61 240.26C386.61 231.61 386.61 162.36 386.61 153.71C386.61 149.38 383.07 145.83 378.75 145.83C372.98 145.83 344.12 145.83 292.19 145.83C286.94 148.19 284.32 150.83 284.32 153.71C284.32 162.36 284.32 231.61 284.32 240.26C284.32 244.59 287.86 248.13 292.19 248.13ZM329.04 219.01C325.63 222.03 320.26 219.67 320.26 215.09C320.26 211.45 320.26 182.38 320.26 178.75C320.26 174.16 325.63 171.81 329.04 174.82C330.37 176.03 337.01 182.11 348.98 193.05C350.11 194.71 350.68 196.03 350.68 196.98C350.68 198.43 350.15 199.87 348.98 200.92C346.98 202.73 331.03 217.21 329.04 219.01ZM325.37 178.75C325.38 182.4 325.49 211.57 325.5 215.22C337.46 204.28 344.1 198.2 345.44 196.98C345.44 196.98 345.44 196.98 345.44 196.98C344.1 195.77 337.41 189.69 325.37 178.75Z" id="cY5xtfm9I"></path><path d="M292.19 256C283.53 256 276.45 248.92 276.45 240.26C276.45 231.61 276.45 162.36 276.45 153.71C276.45 145.05 283.53 137.97 292.19 137.97C300.84 137.97 370.09 137.97 378.75 137.97C387.4 137.97 394.49 145.05 394.49 153.71C394.49 171.02 394.49 231.61 394.49 240.26C394.49 248.92 387.4 256 378.75 256C370.09 256 300.84 256 292.19 256ZM292.19 248.13C300.84 248.13 370.09 248.13 378.75 248.13C383.07 248.13 386.61 244.59 386.61 240.26C386.61 231.61 386.61 162.36 386.61 153.71C386.61 149.38 383.07 145.83 378.75 145.83C372.98 145.83 344.12 145.83 292.19 145.83C286.94 148.19 284.32 150.83 284.32 153.71C284.32 162.36 284.32 231.61 284.32 240.26C284.32 244.59 287.86 248.13 292.19 248.13ZM329.04 219.01C325.63 222.03 320.26 219.67 320.26 215.09C320.26 211.45 320.26 182.38 320.26 178.75C320.26 174.16 325.63 171.81 329.04 174.82C330.37 176.03 337.01 182.11 348.98 193.05C350.11 194.71 350.68 196.03 350.68 196.98C350.68 198.43 350.15 199.87 348.98 200.92C346.98 202.73 331.03 217.21 329.04 219.01ZM325.37 178.75C325.38 182.4 325.49 211.57 325.5 215.22C337.46 204.28 344.1 198.2 345.44 196.98C345.44 196.98 345.44 196.98 345.44 196.98C344.1 195.77 337.41 189.69 325.37 178.75Z" id="f1XeIld8ZE"></path><path d="M292.19 137.97C283.53 137.97 276.45 145.05 276.45 153.71C276.45 162.36 276.45 231.61 276.45 240.26C276.45 248.92 283.53 256 292.19 256C300.84 256 370.09 256 378.75 256C387.4 256 394.49 248.92 394.49 240.26C394.49 222.95 394.49 162.36 394.49 153.71C394.49 145.05 387.4 137.97 378.75 137.97C370.09 137.97 300.84 137.97 292.19 137.97ZM292.19 145.83C300.84 145.83 370.09 145.83 378.75 145.83C383.07 145.83 386.61 149.38 386.61 153.71C386.61 162.36 386.61 231.61 386.61 240.26C386.61 244.59 383.07 248.13 378.75 248.13C372.98 248.13 344.12 248.13 292.19 248.13C286.94 245.77 284.32 243.14 284.32 240.26C284.32 231.61 284.32 162.36 284.32 153.71C284.32 149.38 287.86 145.83 292.19 145.83ZM329.04 174.95C325.63 171.94 320.26 174.3 320.26 178.88C320.26 182.52 320.26 211.58 320.26 215.22C320.26 219.8 325.63 222.16 329.04 219.15C330.37 217.93 337.01 211.86 348.98 200.92C350.11 199.26 350.68 197.94 350.68 196.98C350.68 195.54 350.15 194.1 348.98 193.05C346.98 191.23 331.03 176.76 329.04 174.95ZM325.37 215.22C325.38 211.57 325.49 182.4 325.5 178.75C337.46 189.69 344.1 195.77 345.44 196.98C345.44 196.98 345.44 196.98 345.44 196.98C344.1 198.2 337.41 204.28 325.37 215.22Z" id="b5FQO6CZ81"></path><path d="M292.19 137.97C283.53 137.97 276.45 145.05 276.45 153.71C276.45 162.36 276.45 231.61 276.45 240.26C276.45 248.92 283.53 256 292.19 256C300.84 256 370.09 256 378.75 256C387.4 256 394.49 248.92 394.49 240.26C394.49 222.95 394.49 162.36 394.49 153.71C394.49 145.05 387.4 137.97 378.75 137.97C370.09 137.97 300.84 137.97 292.19 137.97ZM292.19 145.83C300.84 145.83 370.09 145.83 378.75 145.83C383.07 145.83 386.61 149.38 386.61 153.71C386.61 162.36 386.61 231.61 386.61 240.26C386.61 244.59 383.07 248.13 378.75 248.13C372.98 248.13 344.12 248.13 292.19 248.13C286.94 245.77 284.32 243.14 284.32 240.26C284.32 231.61 284.32 162.36 284.32 153.71C284.32 149.38 287.86 145.83 292.19 145.83ZM329.04 174.95C325.63 171.94 320.26 174.3 320.26 178.88C320.26 182.52 320.26 211.58 320.26 215.22C320.26 219.8 325.63 222.16 329.04 219.15C330.37 217.93 337.01 211.86 348.98 200.92C350.11 199.26 350.68 197.94 350.68 196.98C350.68 195.54 350.15 194.1 348.98 193.05C346.98 191.23 331.03 176.76 329.04 174.95ZM325.37 215.22C325.38 211.57 325.49 182.4 325.5 178.75C337.46 189.69 344.1 195.77 345.44 196.98C345.44 196.98 345.44 196.98 345.44 196.98C344.1 198.2 337.41 204.28 325.37 215.22Z" id="a3xZhkxqQN"></path><path d="M102.81 137.97C111.47 137.97 118.55 145.05 118.55 153.71C118.55 162.36 118.55 231.61 118.55 240.26C118.55 248.92 111.47 256 102.81 256C94.16 256 24.91 256 16.25 256C7.6 256 0.51 248.92 0.51 240.26C0.51 222.95 0.51 162.36 0.51 153.71C0.51 145.05 7.6 137.97 16.25 137.97C24.91 137.97 94.16 137.97 102.81 137.97ZM102.81 145.83C94.16 145.83 24.91 145.83 16.25 145.83C11.93 145.83 8.39 149.38 8.39 153.71C8.39 162.36 8.39 231.61 8.39 240.26C8.39 244.59 11.93 248.13 16.25 248.13C22.02 248.13 50.88 248.13 102.81 248.13C108.06 245.77 110.68 243.14 110.68 240.26C110.68 231.61 110.68 162.36 110.68 153.71C110.68 149.38 107.14 145.83 102.81 145.83ZM65.96 174.95C69.37 171.94 74.74 174.3 74.74 178.88C74.74 182.52 74.74 211.58 74.74 215.22C74.74 219.8 69.37 222.16 65.96 219.15C64.63 217.93 57.99 211.86 46.02 200.92C44.89 199.26 44.32 197.94 44.32 196.98C44.32 195.54 44.85 194.1 46.02 193.05C48.02 191.23 63.97 176.76 65.96 174.95ZM69.63 215.22C69.62 211.57 69.51 182.4 69.5 178.75C57.54 189.69 50.9 195.77 49.56 196.98C49.56 196.98 49.56 196.98 49.56 196.98C50.9 198.2 57.59 204.28 69.63 215.22Z" id="f1EzYfOHWM"></path><path d="M102.81 137.97C111.47 137.97 118.55 145.05 118.55 153.71C118.55 162.36 118.55 231.61 118.55 240.26C118.55 248.92 111.47 256 102.81 256C94.16 256 24.91 256 16.25 256C7.6 256 0.51 248.92 0.51 240.26C0.51 222.95 0.51 162.36 0.51 153.71C0.51 145.05 7.6 137.97 16.25 137.97C24.91 137.97 94.16 137.97 102.81 137.97ZM102.81 145.83C94.16 145.83 24.91 145.83 16.25 145.83C11.93 145.83 8.39 149.38 8.39 153.71C8.39 162.36 8.39 231.61 8.39 240.26C8.39 244.59 11.93 248.13 16.25 248.13C22.02 248.13 50.88 248.13 102.81 248.13C108.06 245.77 110.68 243.14 110.68 240.26C110.68 231.61 110.68 162.36 110.68 153.71C110.68 149.38 107.14 145.83 102.81 145.83ZM65.96 174.95C69.37 171.94 74.74 174.3 74.74 178.88C74.74 182.52 74.74 211.58 74.74 215.22C74.74 219.8 69.37 222.16 65.96 219.15C64.63 217.93 57.99 211.86 46.02 200.92C44.89 199.26 44.32 197.94 44.32 196.98C44.32 195.54 44.85 194.1 46.02 193.05C48.02 191.23 63.97 176.76 65.96 174.95ZM69.63 215.22C69.62 211.57 69.51 182.4 69.5 178.75C57.54 189.69 50.9 195.77 49.56 196.98C49.56 196.98 49.56 196.98 49.56 196.98C50.9 198.2 57.59 204.28 69.63 215.22Z" id="a5hwp22HC"></path><path d="M102.81 256C111.47 256 118.55 248.92 118.55 240.26C118.55 231.61 118.55 162.36 118.55 153.71C118.55 145.05 111.47 137.97 102.81 137.97C94.16 137.97 24.91 137.97 16.25 137.97C7.6 137.97 0.51 145.05 0.51 153.71C0.51 171.02 0.51 231.61 0.51 240.26C0.51 248.92 7.6 256 16.25 256C24.91 256 94.16 256 102.81 256ZM102.81 248.13C94.16 248.13 24.91 248.13 16.25 248.13C11.93 248.13 8.39 244.59 8.39 240.26C8.39 231.61 8.39 162.36 8.39 153.71C8.39 149.38 11.93 145.83 16.25 145.83C22.02 145.83 50.88 145.83 102.81 145.83C108.06 148.19 110.68 150.83 110.68 153.71C110.68 162.36 110.68 231.61 110.68 240.26C110.68 244.59 107.14 248.13 102.81 248.13ZM65.96 219.01C69.37 222.03 74.74 219.67 74.74 215.09C74.74 211.45 74.74 182.38 74.74 178.75C74.74 174.16 69.37 171.81 65.96 174.82C64.63 176.03 57.99 182.11 46.02 193.05C44.89 194.71 44.32 196.03 44.32 196.98C44.32 198.43 44.85 199.87 46.02 200.92C48.02 202.73 63.97 217.21 65.96 219.01ZM69.63 178.75C69.62 182.4 69.51 211.57 69.5 215.22C57.54 204.28 50.9 198.2 49.56 196.98C49.56 196.98 49.56 196.98 49.56 196.98C50.9 195.77 57.59 189.69 69.63 178.75Z" id="e1MrgUvDA"></path><path d="M102.81 256C111.47 256 118.55 248.92 118.55 240.26C118.55 231.61 118.55 162.36 118.55 153.71C118.55 145.05 111.47 137.97 102.81 137.97C94.16 137.97 24.91 137.97 16.25 137.97C7.6 137.97 0.51 145.05 0.51 153.71C0.51 171.02 0.51 231.61 0.51 240.26C0.51 248.92 7.6 256 16.25 256C24.91 256 94.16 256 102.81 256ZM102.81 248.13C94.16 248.13 24.91 248.13 16.25 248.13C11.93 248.13 8.39 244.59 8.39 240.26C8.39 231.61 8.39 162.36 8.39 153.71C8.39 149.38 11.93 145.83 16.25 145.83C22.02 145.83 50.88 145.83 102.81 145.83C108.06 148.19 110.68 150.83 110.68 153.71C110.68 162.36 110.68 231.61 110.68 240.26C110.68 244.59 107.14 248.13 102.81 248.13ZM65.96 219.01C69.37 222.03 74.74 219.67 74.74 215.09C74.74 211.45 74.74 182.38 74.74 178.75C74.74 174.16 69.37 171.81 65.96 174.82C64.63 176.03 57.99 182.11 46.02 193.05C44.89 194.71 44.32 196.03 44.32 196.98C44.32 198.43 44.85 199.87 46.02 200.92C48.02 202.73 63.97 217.21 65.96 219.01ZM69.63 178.75C69.62 182.4 69.51 211.57 69.5 215.22C57.54 204.28 50.9 198.2 49.56 196.98C49.56 196.98 49.56 196.98 49.56 196.98C50.9 195.77 57.59 189.69 69.63 178.75Z" id="b6ZcoqVKi"></path></defs><g><g><g><use xlink:href="#ezR3tVcXt" opacity="1" fill="#ccd6f6" fill-opacity="1"></use><g><use xlink:href="#ezR3tVcXt" opacity="1" fill-opacity="0" stroke="#000000" stroke-width="1" stroke-opacity="0"></use></g></g><g><use xlink:href="#b2STronE4B" opacity="1" fill="#ccd6f6" fill-opacity="1"></use><g><use xlink:href="#b2STronE4B" opacity="1" fill-opacity="0" stroke="#000000" stroke-width="1" stroke-opacity="0"></use></g></g><g><use xlink:href="#a9yiBfIDU" opacity="1" fill="#ccd6f6" fill-opacity="1"></use><g><use xlink:href="#a9yiBfIDU" opacity="1" fill-opacity="0" stroke="#000000" stroke-width="1" stroke-opacity="0"></use></g></g><g><use xlink:href="#f1IcAp0yih" opacity="1" fill="#ccd6f6" fill-opacity="1"></use><g><use xlink:href="#f1IcAp0yih" opacity="1" fill-opacity="0" stroke="#000000" stroke-width="1" stroke-opacity="0"></use></g></g><g><use xlink:href="#dcgyHHpR3" opacity="1" fill="#ccd6f6" fill-opacity="1"></use><g><use xlink:href="#dcgyHHpR3" opacity="1" fill-opacity="0" stroke="#000000" stroke-width="1" stroke-opacity="0"></use></g></g><g><use xlink:href="#d4AbF8dP6l" opacity="1" fill="#ccd6f6" fill-opacity="1"></use><g><use xlink:href="#d4AbF8dP6l" opacity="1" fill-opacity="0" stroke="#000000" stroke-width="1" stroke-opacity="0"></use></g></g><g><use xlink:href="#c4HKrp2YH1" opacity="1" fill="#ccd6f6" fill-opacity="1"></use><g><use xlink:href="#c4HKrp2YH1" opacity="1" fill-opacity="0" stroke="#000000" stroke-width="1" stroke-opacity="0"></use></g></g><g><use xlink:href="#a22kFTuG8W" opacity="1" fill="#ccd6f6" fill-opacity="1"></use><g><use xlink:href="#a22kFTuG8W" opacity="1" fill-opacity="0" stroke="#000000" stroke-width="1" stroke-opacity="0"></use></g></g></g><g><g><use xlink:href="#cY5xtfm9I" opacity="1" fill="#59e2c4" fill-opacity="1"></use><g><use xlink:href="#cY5xtfm9I" opacity="1" fill-opacity="0" stroke="#000000" stroke-width="1" stroke-opacity="0"></use></g></g><g><use xlink:href="#f1XeIld8ZE" opacity="1" fill="#59e2c4" fill-opacity="1"></use><g><use xlink:href="#f1XeIld8ZE" opacity="1" fill-opacity="0" stroke="#000000" stroke-width="1" stroke-opacity="0"></use></g></g><g><use xlink:href="#b5FQO6CZ81" opacity="1" fill="#59e2c4" fill-opacity="1"></use><g><use xlink:href="#b5FQO6CZ81" opacity="1" fill-opacity="0" stroke="#000000" stroke-width="1" stroke-opacity="0"></use></g></g><g><use xlink:href="#a3xZhkxqQN" opacity="1" fill="#59e2c4" fill-opacity="1"></use><g><use xlink:href="#a3xZhkxqQN" opacity="1" fill-opacity="0" stroke="#000000" stroke-width="1" stroke-opacity="0"></use></g></g></g><g><g><use xlink:href="#f1EzYfOHWM" opacity="1" fill="#59e2c4" fill-opacity="1"></use><g><use xlink:href="#f1EzYfOHWM" opacity="1" fill-opacity="0" stroke="#000000" stroke-width="1" stroke-opacity="0"></use></g></g><g><use xlink:href="#a5hwp22HC" opacity="1" fill="#59e2c4" fill-opacity="1"></use><g><use xlink:href="#a5hwp22HC" opacity="1" fill-opacity="0" stroke="#000000" stroke-width="1" stroke-opacity="0"></use></g></g><g><use xlink:href="#e1MrgUvDA" opacity="1" fill="#59e2c4" fill-opacity="1"></use><g><use xlink:href="#e1MrgUvDA" opacity="1" fill-opacity="0" stroke="#000000" stroke-width="1" stroke-opacity="0"></use></g></g><g><use xlink:href="#b6ZcoqVKi" opacity="1" fill="#59e2c4" fill-opacity="1"></use><g><use xlink:href="#b6ZcoqVKi" opacity="1" fill-opacity="0" stroke="#000000" stroke-width="1" stroke-opacity="0"></use></g></g></g></g></svg>