<?xml version="1.0" encoding="UTF-8" standalone="no"?>
<!DOCTYPE svg PUBLIC "-//W3C//DTD SVG 1.1//EN" "http://www.w3.org/Graphics/SVG/1.1/DTD/svg11.dtd">
<svg version="1.1" xmlns="http://www.w3.org/2000/svg" xmlns:xlink="http://www.w3.org/1999/xlink" preserveAspectRatio="xMidYMid meet" viewBox="155.15999999999985 14.359437269175292 331.6799292341021 485.28071633082453" width="327.68" height="481.28"><defs><path d="M248.32 148.48C248.32 162.58 248.32 275.34 248.32 289.44C241.98 275.73 230.6 260.92 216.32 257.28C196.89 252.01 173.1 267.55 167.68 285.6C164.92 295.66 166.72 307.11 172.16 321.12C198.76 385.08 231.51 446.49 271.36 493.12C273.26 495.31 276.14 496.63 279.04 496.64C292.86 496.64 403.45 496.64 417.28 496.64C419.46 496.62 421.62 495.88 423.36 494.56C438.1 483.64 449.98 465.04 459.84 442.88C469.7 420.72 477.25 395.01 481.12 369.92C484.99 344.83 484.97 321.34 479.52 300.48C474.25 280.35 460.05 263.6 438.88 261.12C433.89 261.1 428.62 261.54 424.16 262.56C421.53 256.28 417.85 250.92 413.28 247.68C405.62 242.25 397.83 240.54 391.52 240.64C385.46 240.74 379.93 242.95 375.04 246.4C372.84 243.04 370.57 239.54 367.68 237.44C360.09 231.93 352.01 230.4 345.6 230.4C340.29 230.4 335.16 231.87 330.24 233.92C330.24 225.38 330.24 157.02 330.24 148.48C329.8 121.07 308.19 107.47 289.28 107.52C266.77 107.52 248.32 125.96 248.32 148.48ZM309.76 148.48C309.76 159.23 309.76 245.25 309.76 256C309.69 260.64 313.18 265.09 317.71 266.13C322.23 267.17 327.32 264.69 329.28 260.48C331.54 255.78 340.06 250.88 345.6 250.88C348.08 250.88 352.69 251.91 355.68 254.08C358.66 256.25 360.96 258.78 360.96 266.24C360.96 270.79 364.39 275.12 368.81 276.18C373.24 277.24 378.25 274.93 380.32 270.88C384.48 262.55 386.71 261.21 391.84 261.12C393.26 261.09 398.23 262.04 401.44 264.32C404.65 266.6 407.04 269.22 407.04 276.48C406.99 280.47 409.53 284.36 413.19 285.95C416.85 287.54 421.42 286.74 424.32 284C428.2 282.09 432.01 281.51 436.96 281.6C449.17 283.15 455.5 290.8 459.84 306.08C464.21 321.5 464.37 343.53 460.8 366.72C457.22 389.91 450.15 414.26 441.12 434.56C432.64 453.6 422.27 468.47 413.12 476.16C400.21 476.16 296.91 476.16 284 476.16C248.06 433.76 213.73 368.65 191.36 313.76C186.7 301.77 186.28 294.89 187.36 291.04C191.16 281.14 201.77 275.54 210.88 276.96C221.77 281.06 224.46 288.33 229.12 296.64C231.15 300.72 247.41 333.36 249.44 337.44C251.51 341.49 256.52 343.8 260.95 342.74C265.37 341.68 268.79 337.35 268.8 332.8C268.8 314.37 268.8 166.91 268.8 148.48C268.8 136.96 277.76 128 289.28 128C300.8 128 309.76 136.96 309.76 148.48Z" id="agmOxBuep"></path><path d="M205.12 18.4C200.51 23.01 163.65 59.86 159.04 64.47C156.8 66.52 156.27 69.09 156.16 71.67C156.25 74.47 156.91 76.71 159.04 78.87C163.65 83.47 200.51 120.33 205.12 124.94C208.88 129.07 215.82 128.92 219.68 125.1C223.54 121.28 223.57 114.32 219.68 110.54C216.82 107.68 193.9 84.77 191.04 81.91C256.53 81.91 322.03 81.91 387.52 81.91C384.66 84.77 361.74 107.68 358.88 110.54C354.99 114.32 355.02 121.28 358.88 125.1C362.74 128.91 369.7 128.87 373.44 124.94C378.05 120.33 414.91 83.47 419.52 78.87C421.65 76.71 422.31 74.47 422.4 71.67C422.29 69.09 421.76 66.52 419.52 64.47C414.91 59.86 378.05 23.01 373.44 18.4C369.62 14.35 362.74 14.42 358.88 18.24C355.02 22.06 354.99 29.01 358.88 32.8C361.74 35.66 384.66 58.57 387.52 61.43C322.03 61.43 256.53 61.43 191.04 61.43C193.9 58.57 216.82 35.66 219.68 32.8C223.57 29.01 223.54 22.06 219.68 18.24C217.75 16.33 215.18 15.33 212.48 15.36C209.78 15.39 207.03 16.37 205.12 18.4Z" id="a4cx0BWllq"></path></defs><g><g><use xlink:href="#agmOxBuep" opacity="1" fill="#59e2c4" fill-opacity="1"></use><g><use xlink:href="#agmOxBuep" opacity="1" fill-opacity="0" stroke="#000000" stroke-width="1" stroke-opacity="0"></use></g></g><g><use xlink:href="#a4cx0BWllq" opacity="1" fill="#59e2c4" fill-opacity="1"></use><g><use xlink:href="#a4cx0BWllq" opacity="1" fill-opacity="0" stroke="#000000" stroke-width="1" stroke-opacity="0"></use></g></g></g></svg>