<?xml version="1.0" encoding="UTF-8" standalone="no"?>
<!DOCTYPE svg PUBLIC "-//W3C//DTD SVG 1.1//EN" "http://www.w3.org/Graphics/SVG/1.1/DTD/svg11.dtd">
<svg version="1.1" xmlns="http://www.w3.org/2000/svg" xmlns:xlink="http://www.w3.org/1999/xlink" preserveAspectRatio="xMidYMid meet" viewBox="122.37368143010488 191.5824542867366 395.25263713979007 256.8350914265268" width="395.25" height="256.84"><defs><path d="M260.79 207.37C260.79 216.05 260.79 285.53 260.79 294.21C260.79 302.89 267.9 310 276.58 310C285.26 310 354.74 310 363.42 310C372.1 310 379.21 302.89 379.21 294.21C379.21 285.53 379.21 216.05 379.21 207.37C379.21 198.69 372.1 191.58 363.42 191.58C346.05 191.58 285.26 191.58 276.58 191.58C267.9 191.58 260.79 198.69 260.79 207.37ZM276.58 302.11C272.24 302.11 268.69 298.55 268.69 294.21C268.69 285.53 268.69 216.05 268.69 207.37C268.69 203.03 272.24 199.48 276.58 199.48C285.26 199.48 354.74 199.48 363.42 199.48C367.76 199.48 371.31 203.03 371.31 207.37C371.31 213.16 371.31 242.11 371.31 294.21C368.94 299.47 366.31 302.11 363.42 302.11C354.74 302.11 285.26 302.11 276.58 302.11ZM316.05 237.24C314.24 239.24 299.71 255.24 297.89 257.24C294.87 260.66 297.24 266.05 301.84 266.05C305.49 266.05 334.65 266.05 338.29 266.05C342.89 266.05 345.26 260.66 342.24 257.24C341.02 255.91 334.92 249.24 323.95 237.24C322.28 236.1 320.96 235.53 320 235.53C318.55 235.53 317.11 236.06 316.05 237.24ZM320 240.79C321.22 242.13 327.32 248.84 338.29 260.92C334.63 260.91 305.37 260.8 301.71 260.79C312.68 248.79 318.78 242.13 320 240.79C320 240.79 320 240.79 320 240.79Z" id="f67Opmo9o"></path><path d="M260.79 207.37C260.79 216.05 260.79 285.53 260.79 294.21C260.79 302.89 267.9 310 276.58 310C285.26 310 354.74 310 363.42 310C372.1 310 379.21 302.89 379.21 294.21C379.21 285.53 379.21 216.05 379.21 207.37C379.21 198.69 372.1 191.58 363.42 191.58C346.05 191.58 285.26 191.58 276.58 191.58C267.9 191.58 260.79 198.69 260.79 207.37ZM276.58 302.11C272.24 302.11 268.69 298.55 268.69 294.21C268.69 285.53 268.69 216.05 268.69 207.37C268.69 203.03 272.24 199.48 276.58 199.48C285.26 199.48 354.74 199.48 363.42 199.48C367.76 199.48 371.31 203.03 371.31 207.37C371.31 213.16 371.31 242.11 371.31 294.21C368.94 299.47 366.31 302.11 363.42 302.11C354.74 302.11 285.26 302.11 276.58 302.11ZM316.05 237.24C314.24 239.24 299.71 255.24 297.89 257.24C294.87 260.66 297.24 266.05 301.84 266.05C305.49 266.05 334.65 266.05 338.29 266.05C342.89 266.05 345.26 260.66 342.24 257.24C341.02 255.91 334.92 249.24 323.95 237.24C322.28 236.1 320.96 235.53 320 235.53C318.55 235.53 317.11 236.06 316.05 237.24ZM320 240.79C321.22 242.13 327.32 248.84 338.29 260.92C334.63 260.91 305.37 260.8 301.71 260.79C312.68 248.79 318.78 242.13 320 240.79C320 240.79 320 240.79 320 240.79Z" id="aaUMqQ3yo"></path><path d="M260.79 432.63C260.79 423.95 260.79 354.47 260.79 345.79C260.79 337.11 267.9 330 276.58 330C285.26 330 354.74 330 363.42 330C372.1 330 379.21 337.11 379.21 345.79C379.21 354.47 379.21 423.95 379.21 432.63C379.21 441.31 372.1 448.42 363.42 448.42C346.05 448.42 285.26 448.42 276.58 448.42C267.9 448.42 260.79 441.31 260.79 432.63ZM276.58 337.89C272.24 337.89 268.69 341.45 268.69 345.79C268.69 354.47 268.69 423.95 268.69 432.63C268.69 436.97 272.24 440.52 276.58 440.52C285.26 440.52 354.74 440.52 363.42 440.52C367.76 440.52 371.31 436.97 371.31 432.63C371.31 426.84 371.31 397.89 371.31 345.79C368.94 340.53 366.31 337.89 363.42 337.89C354.74 337.89 285.26 337.89 276.58 337.89ZM316.05 402.76C314.24 400.76 299.71 384.76 297.89 382.76C294.87 379.34 297.24 373.95 301.84 373.95C305.49 373.95 334.65 373.95 338.29 373.95C342.89 373.95 345.26 379.34 342.24 382.76C341.02 384.09 334.92 390.76 323.95 402.76C322.28 403.9 320.96 404.47 320 404.47C318.55 404.47 317.11 403.94 316.05 402.76ZM320 399.21C321.22 397.87 327.32 391.16 338.29 379.08C334.63 379.09 305.37 379.2 301.71 379.21C312.68 391.21 318.78 397.87 320 399.21C320 399.21 320 399.21 320 399.21Z" id="c1ll9kXZFb"></path><path d="M379.21 432.63C379.21 423.95 379.21 354.47 379.21 345.79C379.21 337.11 372.1 330 363.42 330C354.74 330 285.26 330 276.58 330C267.9 330 260.79 337.11 260.79 345.79C260.79 354.47 260.79 423.95 260.79 432.63C260.79 441.31 267.9 448.42 276.58 448.42C293.95 448.42 354.74 448.42 363.42 448.42C372.1 448.42 379.21 441.31 379.21 432.63ZM363.42 337.89C367.76 337.89 371.31 341.45 371.31 345.79C371.31 354.47 371.31 423.95 371.31 432.63C371.31 436.97 367.76 440.52 363.42 440.52C354.74 440.52 285.26 440.52 276.58 440.52C272.24 440.52 268.69 436.97 268.69 432.63C268.69 426.84 268.69 397.89 268.69 345.79C271.06 340.53 273.69 337.89 276.58 337.89C285.26 337.89 354.74 337.89 363.42 337.89ZM323.95 402.76C325.76 400.76 340.29 384.76 342.11 382.76C345.13 379.34 342.76 373.95 338.16 373.95C334.51 373.95 305.35 373.95 301.71 373.95C297.11 373.95 294.74 379.34 297.76 382.76C298.98 384.09 305.08 390.76 316.05 402.76C317.72 403.9 319.04 404.47 320 404.47C321.45 404.47 322.89 403.94 323.95 402.76ZM320 399.21C318.78 397.87 312.68 391.16 301.71 379.08C305.37 379.09 334.63 379.2 338.29 379.21C327.32 391.21 321.22 397.87 320 399.21C320 399.21 320 399.21 320 399.21Z" id="c1OELQv3qB"></path><path d="M501.84 448.42C493.15 448.42 423.68 448.42 415 448.42C406.31 448.42 399.21 441.31 399.21 432.63C399.21 423.95 399.21 354.47 399.21 345.79C399.21 337.11 406.31 330 415 330C423.68 330 493.15 330 501.84 330C510.52 330 517.63 337.11 517.63 345.79C517.63 363.16 517.63 423.95 517.63 432.63C517.63 441.31 510.52 448.42 501.84 448.42ZM407.1 432.63C407.1 436.97 410.65 440.52 415 440.52C423.68 440.52 493.15 440.52 501.84 440.52C506.18 440.52 509.73 436.97 509.73 432.63C509.73 423.95 509.73 354.47 509.73 345.79C509.73 341.45 506.18 337.89 501.84 337.89C496.05 337.89 467.1 337.89 415 337.89C409.73 340.26 407.1 342.9 407.1 345.79C407.1 354.47 407.1 423.95 407.1 432.63ZM471.97 393.16C469.97 394.97 453.97 409.5 451.97 411.31C448.55 414.34 443.16 411.97 443.16 407.37C443.16 403.72 443.16 374.56 443.16 370.92C443.16 366.31 448.55 363.95 451.97 366.97C453.3 368.19 459.97 374.29 471.97 385.26C473.11 386.93 473.68 388.25 473.68 389.21C473.68 390.66 473.15 392.1 471.97 393.16ZM468.42 389.21C467.08 387.99 460.37 381.89 448.29 370.92C448.3 374.58 448.41 403.84 448.42 407.5C460.42 396.53 467.08 390.43 468.42 389.21C468.42 389.21 468.42 389.21 468.42 389.21Z" id="acwEzJxCU"></path><path d="M501.84 330C493.15 330 423.68 330 415 330C406.31 330 399.21 337.11 399.21 345.79C399.21 354.47 399.21 423.95 399.21 432.63C399.21 441.31 406.31 448.42 415 448.42C423.68 448.42 493.15 448.42 501.84 448.42C510.52 448.42 517.63 441.31 517.63 432.63C517.63 415.26 517.63 354.47 517.63 345.79C517.63 337.11 510.52 330 501.84 330ZM407.1 345.79C407.1 341.45 410.65 337.89 415 337.89C423.68 337.89 493.15 337.89 501.84 337.89C506.18 337.89 509.73 341.45 509.73 345.79C509.73 354.47 509.73 423.95 509.73 432.63C509.73 436.97 506.18 440.52 501.84 440.52C496.05 440.52 467.1 440.52 415 440.52C409.73 438.15 407.1 435.52 407.1 432.63C407.1 423.95 407.1 354.47 407.1 345.79ZM471.97 385.26C469.97 383.44 453.97 368.92 451.97 367.1C448.55 364.08 443.16 366.45 443.16 371.05C443.16 374.7 443.16 403.85 443.16 407.5C443.16 412.1 448.55 414.47 451.97 411.45C453.3 410.22 459.97 404.13 471.97 393.16C473.11 391.49 473.68 390.17 473.68 389.21C473.68 387.76 473.15 386.32 471.97 385.26ZM468.42 389.21C467.08 390.43 460.37 396.53 448.29 407.5C448.3 403.84 448.41 374.58 448.42 370.92C460.42 381.89 467.08 387.99 468.42 389.21C468.42 389.21 468.42 389.21 468.42 389.21Z" id="c219vGMZio"></path><path d="M138.16 330C146.85 330 216.32 330 225 330C233.69 330 240.79 337.11 240.79 345.79C240.79 354.47 240.79 423.95 240.79 432.63C240.79 441.31 233.69 448.42 225 448.42C216.32 448.42 146.85 448.42 138.16 448.42C129.48 448.42 122.37 441.31 122.37 432.63C122.37 415.26 122.37 354.47 122.37 345.79C122.37 337.11 129.48 330 138.16 330ZM232.9 345.79C232.9 341.45 229.35 337.89 225 337.89C216.32 337.89 146.85 337.89 138.16 337.89C133.82 337.89 130.27 341.45 130.27 345.79C130.27 354.47 130.27 423.95 130.27 432.63C130.27 436.97 133.82 440.52 138.16 440.52C143.95 440.52 172.9 440.52 225 440.52C230.27 438.15 232.9 435.52 232.9 432.63C232.9 423.95 232.9 354.47 232.9 345.79ZM168.03 385.26C170.03 383.44 186.03 368.92 188.03 367.1C191.45 364.08 196.84 366.45 196.84 371.05C196.84 374.7 196.84 403.85 196.84 407.5C196.84 412.1 191.45 414.47 188.03 411.45C186.7 410.22 180.03 404.13 168.03 393.16C166.89 391.49 166.32 390.17 166.32 389.21C166.32 387.76 166.85 386.32 168.03 385.26ZM171.58 389.21C172.92 390.43 179.63 396.53 191.71 407.5C191.7 403.84 191.59 374.58 191.58 370.92C179.58 381.89 172.92 387.99 171.58 389.21C171.58 389.21 171.58 389.21 171.58 389.21Z" id="af8LXHSyG"></path><path d="M138.16 448.42C146.85 448.42 216.32 448.42 225 448.42C233.69 448.42 240.79 441.31 240.79 432.63C240.79 423.95 240.79 354.47 240.79 345.79C240.79 337.11 233.69 330 225 330C216.32 330 146.85 330 138.16 330C129.48 330 122.37 337.11 122.37 345.79C122.37 363.16 122.37 423.95 122.37 432.63C122.37 441.31 129.48 448.42 138.16 448.42ZM232.9 432.63C232.9 436.97 229.35 440.52 225 440.52C216.32 440.52 146.85 440.52 138.16 440.52C133.82 440.52 130.27 436.97 130.27 432.63C130.27 423.95 130.27 354.47 130.27 345.79C130.27 341.45 133.82 337.89 138.16 337.89C143.95 337.89 172.9 337.89 225 337.89C230.27 340.26 232.9 342.9 232.9 345.79C232.9 354.47 232.9 423.95 232.9 432.63ZM168.03 393.16C170.03 394.97 186.03 409.5 188.03 411.31C191.45 414.34 196.84 411.97 196.84 407.37C196.84 403.72 196.84 374.56 196.84 370.92C196.84 366.31 191.45 363.95 188.03 366.97C186.7 368.19 180.03 374.29 168.03 385.26C166.89 386.93 166.32 388.25 166.32 389.21C166.32 390.66 166.85 392.1 168.03 393.16ZM171.58 389.21C172.92 387.99 179.63 381.89 191.71 370.92C191.7 374.58 191.59 403.84 191.58 407.5C179.58 396.53 172.92 390.43 171.58 389.21C171.58 389.21 171.58 389.21 171.58 389.21Z" id="cg04P3d4"></path></defs><g><g><g><use xlink:href="#f67Opmo9o" opacity="1" fill="#59e2c4" fill-opacity="1"></use><g><use xlink:href="#f67Opmo9o" opacity="1" fill-opacity="0" stroke="#000000" stroke-width="1" stroke-opacity="0"></use></g></g><g><use xlink:href="#aaUMqQ3yo" opacity="1" fill="#59e2c4" fill-opacity="1"></use><g><use xlink:href="#aaUMqQ3yo" opacity="1" fill-opacity="0" stroke="#000000" stroke-width="1" stroke-opacity="0"></use></g></g></g><g><g><use xlink:href="#c1ll9kXZFb" opacity="1" fill="#59e2c4" fill-opacity="1"></use><g><use xlink:href="#c1ll9kXZFb" opacity="1" fill-opacity="0" stroke="#000000" stroke-width="1" stroke-opacity="0"></use></g></g><g><use xlink:href="#c1OELQv3qB" opacity="1" fill="#59e2c4" fill-opacity="1"></use><g><use xlink:href="#c1OELQv3qB" opacity="1" fill-opacity="0" stroke="#000000" stroke-width="1" stroke-opacity="0"></use></g></g></g><g><g><use xlink:href="#acwEzJxCU" opacity="1" fill="#ccd6f6" fill-opacity="1"></use><g><use xlink:href="#acwEzJxCU" opacity="1" fill-opacity="0" stroke="#000000" stroke-width="1" stroke-opacity="0"></use></g></g><g><use xlink:href="#c219vGMZio" opacity="1" fill="#ccd6f6" fill-opacity="1"></use><g><use xlink:href="#c219vGMZio" opacity="1" fill-opacity="0" stroke="#000000" stroke-width="1" stroke-opacity="0"></use></g></g></g><g><g><use xlink:href="#af8LXHSyG" opacity="1" fill="#ccd6f6" fill-opacity="1"></use><g><use xlink:href="#af8LXHSyG" opacity="1" fill-opacity="0" stroke="#000000" stroke-width="1" stroke-opacity="0"></use></g></g><g><use xlink:href="#cg04P3d4" opacity="1" fill="#ccd6f6" fill-opacity="1"></use><g><use xlink:href="#cg04P3d4" opacity="1" fill-opacity="0" stroke="#000000" stroke-width="1" stroke-opacity="0"></use></g></g></g></g></svg>